<svg xmlns="http://www.w3.org/2000/svg" width="800px" height="800px" viewBox="0 0 16 16" fill="#ffffff"
    class="bi bi-volume-down-fill" stroke="#ffffff" stroke-width="0.00016">

    <g id="SVGRepo_bgCarrier" stroke-width="0" />

    <g id="SVGRepo_tracerCarrier" stroke-linecap="round" stroke-linejoin="round" />

    <g id="SVGRepo_iconCarrier">
        <path
            d="M9 4a.5.5 0 0 0-.812-.39L5.825 5.5H3.5A.5.5 0 0 0 3 6v4a.5.5 0 0 0 .5.5h2.325l2.363 1.89A.5.5 0 0 0 9 12V4zm3.025 4a4.486 4.486 0 0 1-1.318 3.182L10 10.475A3.489 3.489 0 0 0 11.025 8 3.49 3.49 0 0 0 10 5.525l.707-.707A4.486 4.486 0 0 1 12.025 8z" />
    </g>

</svg>